/* XPM */
static char *rock_wall[] = {
/* columns rows colors chars-per-pixel */
"64 64 183 2 ",
"   c #322C21",
".  c #38352A",
"X  c #423E36",
"o  c #454136",
"O  c #49453B",
"+  c #57503D",
"@  c #4D4A43",
"#  c #504D47",
"$  c #534F4A",
"%  c #5B5445",
"&  c #55514C",
"*  c #59544C",
"=  c #5E5B4E",
"-  c #555452",
";  c #595551",
":  c #5D5A55",
">  c #5E5D5B",
",  c #635B4F",
"<  c #625C53",
"1  c #635F59",
"2  c #656155",
"3  c #6B6455",
"4  c #66635D",
"5  c #6C645C",
"6  c #6D695E",
"7  c #786754",
"8  c #716A5D",
"9  c #79715D",
"0  c #656462",
"q  c #6A6662",
"w  c #6C6A64",
"e  c #666668",
"r  c #676968",
"t  c #6D6D6B",
"y  c #726B62",
"u  c #716E6B",
"i  c #6F706E",
"p  c #767365",
"a  c #7D7165",
"s  c #73726D",
"d  c #7A766C",
"f  c #676970",
"g  c #6D6F74",
"h  c #757573",
"j  c #797673",
"k  c #7C7A75",
"l  c #74767A",
"z  c #77797D",
"x  c #7C7C7B",
"c  c #867A6A",
"v  c #817D75",
"b  c #817E7B",
"n  c #7F817E",
"m  c #87806E",
"M  c #9B886E",
"N  c #8A8273",
"B  c #84817D",
"V  c #8B857C",
"C  c #8E8A7F",
"Z  c #968675",
"A  c #928B7F",
"S  c #9F947F",
"D  c #A4937D",
"F  c #A3997E",
"G  c #AE9979",
"H  c #B49B7F",
"J  c #7C7E81",
"K  c #7E8184",
"L  c #848483",
"P  c #898683",
"I  c #878986",
"U  c #8C8A85",
"Y  c #858689",
"T  c #888788",
"R  c #87888C",
"E  c #8C8C8B",
"W  c #948583",
"Q  c #928C84",
"!  c #928E8B",
"~  c #9A8B88",
"^  c #969185",
"/  c #9E9482",
"(  c #93918D",
")  c #9B958C",
"_  c #9F988C",
"`  c #878C90",
"'  c #8C8E92",
"]  c #8E9094",
"[  c #8F9398",
"{  c #949493",
"}  c #999692",
"|  c #9C9995",
" . c #949699",
".. c #97999B",
"X. c #9C9C9B",
"o. c #A29385",
"O. c #A39B8D",
"+. c #AA9E8C",
"@. c #A29593",
"#. c #A39C93",
"$. c #AB9D94",
"%. c #A29E9B",
"&. c #AC9E99",
"*. c #9FA09D",
"=. c #AEA18E",
"-. c #B5A38E",
";. c #B8A68B",
":. c #BCA98D",
">. c #A5A196",
",. c #ACA295",
"<. c #A4A19D",
"1. c #AAA49C",
"2. c #ADA99C",
"3. c #B2A694",
"4. c #BFA490",
"5. c #B5A992",
"6. c #BBAC95",
"7. c #B2A59C",
"8. c #B3AA9D",
"9. c #B9AD9E",
"0. c #BFB09C",
"q. c #9D9EA1",
"w. c #9EA0A2",
"e. c #A4A3A3",
"r. c #AAA6A2",
"t. c #A7A8A7",
"y. c #ACA9A5",
"u. c #A4A5A9",
"i. c #ACA7A8",
"p. c #A7A9AC",
"a. c #ACACAB",
"s. c #B3ACA4",
"d. c #B9ADA3",
"f. c #B2AEAB",
"g. c #BCAEA9",
"h. c #B6B0A5",
"j. c #BBB1A5",
"k. c #B5B1AC",
"l. c #BAB4AC",
"z. c #BEB8AD",
"x. c #ACAEB2",
"c. c #B1AFB2",
"v. c #AEB0B2",
"b. c #B5B4B3",
"n. c #BAB6B2",
"m. c #BDB9B5",
"M. c #B6B6B9",
"N. c #B8B7B9",
"B. c #B7B8BB",
"V. c #BCBCBB",
"C. c #C2B49C",
"Z. c #C3B4A4",
"A. c #C1B5AA",
"S. c #C1B9AE",
"D. c #C8BBAD",
"F. c #C2B6B3",
"G. c #C2BCB5",
"H. c #C8BFB6",
"J. c #C1BEBB",
"K. c #C8BFBB",
"L. c #C7C1B6",
"P. c #CAC1B2",
"I. c #C4C1BD",
"U. c #C9C3BC",
"Y. c #CEC9BF",
"T. c #B6BBC3",
"R. c #BEBEC1",
"E. c #C0BFC0",
"W. c #BFC0C2",
"Q. c #C4C4C3",
"!. c #C9C6C3",
"~. c #C7C8C7",
"^. c #CBC9C6",
"/. c #C6C7C9",
"(. c #C8C7C8",
"). c #C7C8CA",
"_. c #CBCBCA",
"`. c #D0CFCE",
"'. c #D0D0CE",
"]. c #CCCDD1",
"[. c #CFD0D0",
"{. c #D2D2D2",
"}. c #DADAD9",
/* pixels */
"s.f.F.K.K.i.k i./.V.t  .b._.Q.w.E ^.P.P.I.k.k.^.} } e.k.h.^ I n N A =.5.n w U.z.G.z.l.m.U.I.F.F.z.s.J.J.J.c.( b ~ J.7.F.b.&.f.(.",
"J.W f.K.E.E.b b.Q.].b.k s I X.R K p.k.m.L.k.r.) L ,.S >.2.F C w *.2.h.8.n 4 I.I.m.8.s.b.V.U.n.V.m.n.k.U.E.n.T x W @.@.s.(.A.7.F.",
"F.d.&.g.F._.n e._.(.Q.R.w. .w.[ u.e.k v ( *.U n *.h.5.,.2.2.>.= n m.k...r > B.J.V.m.2.i.V.J.U.I.V.E.b.k.E.w.( T b s q 5 W F.F.E.",
"r.g.A.r.f.M.Y U Q.Q.b.Q.W.).).B.W.r.y l.I.I.n.( B.l.k.9.h.2.2.9 + O.2.*.n p k.h.h._.L.y.b.k.J.n.V.Q.J.i.c.i.' {.N.b.b.b q v B &.",
"T 4 w j i t u n.Q.~.b.E.Q.~.~.b.{.U d }./.Q._.) *.W.z.2.a.y.2.n % ^ 1.2.I n 8.h.n.k.!.J.c.n.Q.J.N.E.n.b.f.p.{ (.n.J._.(.N.f.e.q.",
"E.q.E k n u h `.Q.~._._.~._._.V.`.k v _.Q.Q._.`.U 2.^.k.2.| >.m , >.Q.y.} _ 2.L.U.n.k.V.m.c.B.V.V.J.Q.J.n.M.{ J.J.(.E._.].E.E.(.",
"!.F.f.1.P q x `.E.V.V.~./._.[./.~.( I b.m.B.~._.a.B I.~.b.b.k.V = k y.N.a.a.C m.!.K.Q.(.J.n.b.V.Q.n.V.E.V.R.T f._./.(.E./._.E.(.",
"!.K.G.i.b 1 ! _.Q._.~.Q./._._./.V.I E a.{.~.Q.!.I.( n [.B.b.a.p 6 O   O $ E ) O.J.m.E.Q.V.Q.V.g.n.Q.J.E.b.V.z { N.E.(./.E._.!.E.",
"U.I.H.i.5 $ e.].Q.~._.W.)._.E.{.t.I w , c t.I._.V.I.B e.Q.V.| 3 E | A 3 * h N.+.1._.Q.V.k.l.^.n.f.R.E._.Q./.T z R.N.N.V.V.Q.V.J.",
"n.I.J.L w & k ].{.W.~.E.R._.B.).w.2.o.c 7 8 U P w E *.B v.v.p c 2.h.h.z.k.B V.L./ b._.J.K.n.V.Q.E.M.R.M.E.].Y 0 R.Q.Q.J.N.Q.n.b.",
"J.z.b x ..L $ ; { V./._.Q.[._.k._ l.0.Z.D.U.U.,.) t f.t...| x ) 8.,.O.2.m.k ../.n.) n.z.J.Q.Q.R.].R.M.E.E.M.' e b.(._.Q.N.N.b.i.",
"} e.E E u.' 5 $ 6 j E a.t.w.*...*.U.L.b.m.l.V.Y.h.6 h.b.| ( V h.h.k.,.,.l.b j Q.(.i.r.V.V.T.Q.b.E.R.V.c.{ l e.R p.{.(.(.!.V.m.} ",
"0 ..e.x.p.B P <.I.h.( h h h K h a.b.B.B.k.a.a.m.L.N +.+.2.L _ D.k.m.h.h.h.V 6 b.J.J.y.R.R.V.Q.B.c...K l Y K  . .L Q.^.I.(.J.T t ",
"P E { e.b.e.J.m.b.N._.W.x.p.I z _./.V.f.f.V.B.V.Q.k M o.e.k >.G.n.l.n.l.y.<.k f.Q.R.<.! n.T.b.u.' [ X.<.y.q.' J : l.J.V.!...E E ",
"N.J.e.<.Q.k.b.Q.~.Q././.B.x.h I [.~.).b.b.W.I.Q.Q.s ..<.w.h >.j.m.m.l.n.h.k.( v %.<.! v h h ' q.1.1.6.4.5.S.n.b.t L V.k.p.] z k.",
"f.n.f.E.R.n.k.W.Q./.Q.Q./.p.- { [.{.[.V.f.E.W._._.n f.~.v.j 1.9.k.G.G.z.l.y.} ( f.b.l.s.$.L X.U.;.G ;.6.j.z.S.A.b.t L T Y e.I i.",
"k.r.b._.Q.V.b.B.V.R././._.M.- c._.`._._.V.b.N.^.'.E U Q.R.s y.Z.8.m.G.G.n.<.U y.m.b.V.m.k.j.B *.U.5.5.S.l.k.U.G.z.b.l e L e.r.f.",
"H.O.n.(.V.V.n.a.V.J.V./.).V.- <.E./.^.Q.Q.N.Q._.}.a.B a./.E $.Z.8.m.L.z.a.( b n.I.l.l.l.n.b.v.K a.n.f.Q.V.s.V.G.j.t.J L %.| @.f.",
"k.7.k.V._.!.J.i.y.b.m.D.J.b.> ( n.E.^.U.I.Q.I._.}.n.B X.b.*.%.j.d.l.n.a. .( } l.L.l.-.z.!.N.L.b.K s.n.E.Q.i.k.F.d.p.h E a.| %.f.",
"} l.n.a...V._.J.j.8.7.$.s./.h B i.V.(.U.b.k.V.Q.{.(.| a.b.{ ! j.8.l.a.e.} | m.m.L.U.m.I.`.!.I.I.p.B i.Q./.b.s.F.N.B.K ' N.f.i.<.",
"h B y h z J ..B ! f.G.m.N._.R V f.V._._.E.l.b.B.(.(.n.Q.E.E } G.8.} ( e.e.l.V.U.Q.!.I.L.~.~.~.~.~.t.h a._.V.f.n.1.x.] ] t.Y L L ",
"<.b.b e.V.q.i.E & 6 X.c.p.x.' d %.<.l.k.t...b.V.R.Q.V.V.E.k b J.%.{  .V.L.V.!.V.!.^._.I.I.Q.^.^.~./.B h %.B E  .R Y ' z L  ...( ",
"r.q.L b.J.n.B.Q.s.k q { u.x.| x P V P | L i K t.Q.E.R.b.e.L { y.] { i.L.L.E.!.n.^._._.~.~.Q.I.~.^.^.U B R f J q.a.T.q.x 0 ' w.#.",
"u.Y x N.m.V._.R.n.n.b e.e.b.e.n.k.f.b.W.V.t.E s j u.b.r.B e.Q.N.k | ^.N.V.l.!.I.~.^._._.~.W.I.)._.`.( s ' J ..E.M.` K a. .Y {  .",
"x.0 T I.k.b.Q._.W.| B O.-.z.( e.N.b.V.c.f.i.E.n.@.} u.{ b } N.Q.I 2 b.U.I.!.V.Q.~.^.^._._.I.Q.Q.I.V.w.k.e.E M.k.i.l z M.T.V.x.M.",
"Y 0 a.Q.k.N.Q.Q.{ h  .( _ | T T f.b.M.x.i.i.N.E.^.!.a.! ) i.f.i.N.L 4 K.V.b.b.Q.V.V.~.~._._.).~.Q.E.{ z.V.| V.I.q.z b./.Q.M.x.M.",
"q  .V.V.k.b.b.E B a.^.^.v...I i ! n.c.c.i.i.f.c.N.n.| L F.V.g.&.n.E.k w !.~.N.^._.~.Q.^.Q.I.[.I.I.B.T y.U.$.e.a.z ..Q.Q.).W.v.e.",
"E Q.Q.V.e... .*.b.!.I.!.E.I.b.) j ~ f.f.f.g.b.N.b.e.{ ~ K.K.E.F.f.G.Q.w v V._.^.Q.^.Q.`.~.E.Q.V.b.v.E n.L.l...{ x b.T.Q.W.Q.T.' ",
"a.X...} { { y.m.m.V.^.L.I.Q.b.b.f.j b k.f.n.N.b.p.{ %.F.N.J.n.^.n.s.m.f.2 * E {.~.~.^.Q.~.~.V.b.v...I L.U.U.m.y.l.~.~.^./.Q.x.0 ",
"| #.>.k.} y.I.N.m.G.I.4.D.Q.N.E.Q.b.z s e.E.J.M.e.P @.r.i.E.b.F.F.F.!.V.p.s X E `.{._.~.V./.Q.V.~.t.1.^.I.^.U.^.^.I.^.{.V.{ h @ ",
">.2.3.i.n | ^.L.l.U.V.j.U.I.L.L.m.Q.V.R 1 } c.u.E %.J.g.@.s.N.Q.N.c.Q.(.n...6 1 t ( `.!.Q._._.b.*.a.G.L.L.~.^.`.^._.m.b...T h @ ",
"3.3.D #.t k z.m.m.G.L.z.L.G.L.z.G.U.L.v.X.e 0 x ) r.r.b.n.g.F.K.K.F.m.!.U.t.z e.t.0 ( {.N.Q.W.B...k.L.I.U.L.U.^.V.a.v.a.b.p.{ z ",
"S =.6.:.n i L.l.V.m.j.m.I.U.G.m.g.s.J.J.K.b.E b ~ E.&.n.f.7.f._.i.s.F.E.F.f.j i.^.W.r *.v.~.W.e.] ^.P.L.I.k.l.^. .( *.b.l.*.t.} ",
"+.,.=.5.n 0 I.I.m.8.s.b.I.I.z.V.V.n.c.E.E.b.T x ~ @.@.s.^.g.7.F.J.W g.E.E.E.n N.Q.[.m.h i L *.I n t.h.m.L.k.t.) I 3.S O.6.F *.^ ",
"d d h i @ : m.I.G.S.2.y.V.J.U.I.J.J.b.g.E.q.( U b s y 5 W F.F.K.F.g.&.g.F.(.n e._.~.~.W.e.[ w.[ w.t.n m ( | U n  .h.2.5.2.8.2.p ",
"d 1.v.` r r k.h.h._.V.y.f.k.V.z.V.Q.E.s.b.p.' {.V.c.c.b q k b <.i.d.A.&.g.N.T T V.Q.b.W.I.).W.p.b.>.y b.I.!.k.( b.l.h.l.h.v.2.m ",
"3 >.b.<.n B l.l.m.N.L.n.m.b.I.V.N.R.n.b.f.u.{ (.b.V.(.(.V.p.e.e.T 5 w j g t B i.m.I.b.b.b.B.B.2.p.U k ^.!.e.b.y.k.I.h.k.y.*.2.m ",
"3 #.Q.y.| O.2.G.I.I.G.l.k.m.I.R.V.n.J.J.n.M. .V.F.!.E.^._./.W._.Q.X.E k b t ! 1.O.>.} *.( ( ) a.) 8 I e.B B N.!.m.I.I.J.>.V *.A ",
"2 h y.m.m.I.h.l.L.I.Q.!.k.k.G.I.J.n.n.E.V.R.T f._./.(.E.Q._.V.Q.(.F.f.1.U 4 b s.B n n B B *.C t.>.6 : 6 4 | l.m.V.m.I.~.k.k.h.A ",
"p O   O # 4 *.I.m.b.h.a.m.I.I.I.I.U.J.K.n.V.z { N.E.Q././._.Q.!.U.I.V.r.P h 4 x n ( ( | 2.>.! a.y.( k d _ ,.2.b.m.m.I.Q.b.k.t.9 ",
"( _ U 3 % o . w } *.1.2.z.U.`.G.l.G.F.!.Q./.Y z R.M.N.V.V.W.I.V.I.U.L.e.p n i 6 ( *.*.*.*.*.Q | *.f.( y.^.z.j.8.h.m.I.m.k.V.( 3 ",
">.k.h.j.G.>.V w # 4 r d A a.n.V.z.h.G.N.W.].Y 0 R.Q.!.V.N.Q.b.l.m.I.I.L n ] { E { t.b.h.f.2.*.2.C <.V 8 I.L.G.k.>.| k.m.*.*.6 n ",
"2.,.O.s.L.z.j.Y.*.d } k 3 p ( y.m.N.b.T.T.M.{ 0 b._._.Q.N.N.k.i.J.S.B B ] n I E *.*.V.v.t.t.t.k.>.^ X.: ! !.m.l.h._ 2.m.w.*.n S ",
"k.h.,.,.z.j.z.k.| n z.P.9.h.b.p.B.M.b.x.{ j q.' a.{.Q.^.!.V.V.{ { <.E Y i C <.( ( *.b.m.k.f.y.*.b.y.s...6 U.!.!.U.2.2.v.*.( C 9.",
"h.m.h.h.j.5.9.t.I e.L.G.J.N.E.V.b...L j Y L  . .L Q.!.U./.I.E w 0 ..w.{ i ( <.*.*.( *.b.b.I.J.2.<.l.y.r.4 <.^.I.L.8.S =.>.B _ P.",
"n.l.n.l.l.9.s...E f.a.k.V.b.M.u.' ] ..<.y.q.` J : n.J.V.Q.X.E E P ! ( X.w L <.*.a.2.k.k.2.l.m.m.k.y.f.*.I = v | ^ m M / w.n >.z.",
"m.m.l.z.z.z.k.{ k.k.l.i.%.T ( q.e.1.6.;.5.A.n.b.t L N.b.u.{ h a.N.m.e.k.( 6 v.y.b.t.k.J.h.k.m.y.k.V.e.Y I i w j v k *.*.*.s >.l.",
"k.G.m.m.S.m.*.} Q.I.I.J.m.| <.U.;.G :.9.j.A.n.A.b.t L R R e.Y s.k.S.s.V.h.4 n *.*.h.h.k.y.h.m.y.U R Y ] ..E <.a.b.k.R.W.k.n >.9.",
"h.m.G.G.G.X.L <.N.N.V.V.I.L.( e.I.8.5.z.l.k.I.L.z.k.l 0 Y e.1.k.z.2.k.h.2.*.> >.) y.>.y.l.n.e.E n ..f.a.8.>.<.f.k.e.p.V.Q.s s.Z.",
"8.m.L.S.a.E v n.I.n.l.l.b.N.V.( a.m.h.Q.V.y.J.G.j.t.J L %.| @.f.I.*.m.I.h.V.C p 2.y.n.i.} U | e.a.f.Q.G.k.l.k.a.f.X.e.a./.E #.Z.",
"d.z.m.y. .{ _ b.L.l.5.z.~.B.E.R.Y s.n.W.Q.s.k.m.s.u.l E k.| | k.h.2.b.h.L.z.a.n < B B , 6 x #.j.h.<.V.L.n.n.m.V.n.i.X.<.b.%.#.j.",
"8.k.a.e.} | m.m.L.I.F.!.`.Q.L.~.a.s t.Q./.b.s.F.J.T.Y ' N.a.i.%.{ m.m.k.z.J.l.k.B w V W #.Z H :.z.2.2.s.n.n.n.N.V.W.b.b.b.( ! A.",
"d.} { e.1.k.J.U.I.U.^.V.U.~.~.~.W.] > b.).R.f.n.1.u. . .t.Y Y B n I *.2.G.s.J.2.k.*.9.8.-.a -.C.S.L.8.2.s.l.V.m.b.V.Q.Q.T.E } H.",
"%.{  .N.I.J.Q.m.^.^.^.I.I.Q.~.^.Q.V.Y s } C E [ T Y w.{ T  ...( *.k.2.v.I.9.I.z.h.2.+.j.d.s o.d.j.V.S.8.z.k.b.V.b.N.V.E.Q.z B I.",
"! { a.L.J.I.Q.n.~.^.^.^.~.~.I.~.~.I.w.E z g Y *.X.t.k.<.h ] w.#.2.e.*.k.m.8.L.I.F.s.j.8.j.W N Z.j.9.0.,.m.n.f.R.M.V.V.b.e.B } t.",
"j ..^.n.J.l.!.Q.^.^._.^.~.W.I.~._._.| B ] *.B.B.a.J.m.V.X.I ] ..w.E } l.z.y.b.L.L.i.~ S.3.#.2 2.z.j.d.o.1.b.a.Q.Q.R.N.e.L e.J.b.",
"B 1 k.Q.U.I.V.Q.I.~.^._._.I.Q.Q.I.B.e.a.b.y.m.I.~.U.L.V.T.V.v.B.v.g { U.G.J.G.Y.b.U w o.4.z.w i $.g.d.&.d.c.f.b.Q.].a.E b | N.Q.",
"V.L 4 I.E.n.b.Q.V.E.~._._._.).~.W.I.{ z.U.z.z.P.L._.^.!.Q.M.v.B.R 0 t.m.k.I.I.a.i h { ! } | B i ( s.1.@.f.b.f.c.V.Q.e.P } i.f.i.",
"n.Q.k w Q.~.V.^.`.~.~./.W.Q._.Q.I.B.E y.U.Y.U.Y.G.~._._.).W.v.w.0 ..V.G.I.b.` r n k.^.^.f...I w k j.&.&.i.b.b.c.b.w.E b J.m.k.&.",
"f.m.I.t v V._.Q.I.^.I.`.~.I.Q.V.B.f.E m.L.U.Y.^.U.^.Q./.R.W.T.R L Q.I.b.( i i *.V.I.!.!.I.Q.b.( s V &.r.b.F.N.N.u...' ! F.K.U.H.",
"g.g.n.c.2 * E {.^.^.~.Q.~.~.V.b.b.*.L I.Y.^.S.U.^.^.^.^.W.M.v.0 k.V.p.B s n s.I.m.V.U.L.I.I.b.b.a.i j k.f.b.E.c.p.( %.F.n.J.n.^.",
"m.F.!.N.a.s o E `.{.^.~.V._.Q.V.W.t.>.^.I.'.Y.^.^.U.^.`.W.v...& w.m.b.k.| t.~.m.N.L.I.4.F.!.N.Q.I.b.k s r.E.E.M.w.P @.e.i.E.b.F.",
"n.g.!.(.b...0 4 i ( [.~.Q.).).b.*.f.L.I.L.Y.^.'.^.^.m.B.p.t.n # *.f.2.2.n ( ^.G.l.I.G.j.U.I.G.L.m.I.V.Y 1 { c.u.E r.F.b.@.s.F.E.",
"E.b.n.!.~.p.k *.r.4 { _.m.Q.Q.B.{ a.U.I.U.V.U._.I.a.a.a.v.a.I j 2.2.=.>.t n z.G.m.G.L.G.P.G.L.z.V.U.I.M.X.0 0 z } &.r.n.V.g.n.!."
};
