/* XPM */
static char *wood_floor_old[] = {
/* columns rows colors chars-per-pixel */
"64 64 7 1 ",
"  c #613E21",
". c #804A1B",
"X c #8C5526",
"o c #9D612E",
"O c #A66833",
"+ c #B1733C",
"@ c #BE814A",
/* pixels */
"                                                                ",
"                                                                ",
"+++++++++++++++++++@@@@@@@@@       @@@@@@@@@++++++++++++++++++++",
"+++++++++++++++++++++++++++++     ++++++++++++++++++++++++++++++",
"oooooooooooooooooooooooooooooo   ooooooooooooooooooooooooooooooo",
"ooooooooooOOOOOOOOOoooooooooooo  oooooooooooooooooOOOOOOOooooooo",
"ooooooooooooooooooooooooooooooo  ooooooooooooooooooooooooooooooo",
"XXXXXXXXXXXXXXXXXXXXXXXXXXXXXXX  XXXXXXXXXXXXXXXXXXXXXXXXXXXXXXX",
"XXXXXXXXXXXXXXXXXXXXXXXXXXXXXXX  XXXXXXXXXXXXXXXXXXXXXXXXXXXXXXX",
"ooooooooooooooooooooooooooooooo      ooooooooooooooooooooooooooo",
"ooooOOOOOoooooooooooooooooooooo      oooOOOOOOOOOooooooooooooooo",
"ooooooooooooooOOOOOOOOOOOoooo    XXoooooooooooooooooooOOOOOOoooo",
"oooooooooooooooooooooooooooo     XXooooooooooooooooooooooooooooo",
"XXXXXXXXXXXXXXXXXXXXXXXXXXXXXXX  XXXXXXXXXXXXXXXXXXXXXXXXXXXXXXX",
"XXXXXXXXXXXXXXXXXXXXXXXXXXXXXXX   XXXXXXXXXXXXXXXXXXXXXXXXXXXXXX",
"XXXXXXXXXXXXXXXXXXX...........      ........XXXXXXXXXXXXXXXXXXXX",
"                                                                ",
"                                                                ",
" @@@@@@@@++++++++++++++++++++++++++++++++++++++++++++@@@@@@@@@  ",
" +++++++++++++++++++++++++++++++++++++++++++++++++++++++++++++  ",
" oooooooooooooooooooooooooooooooooooooooooooooooooooooooooooo   ",
" oooooooooooooOOOOOooooooooooooooooooooooooooOOOOOOOOOoooooo    ",
" ooooooooooooooooooooooooooooooooooooooooooooooooooooooooooo    ",
"XXXXXXXXXXXXXXXXXXXXXXXXXXXXXXXXXXXXXXXXXXXXXXXXXXXXXXXXXXXXX   ",
"XXXXXXXXXXXXXXXXXXXXXXXXXXXXXXXXXXXXXXXXXXXXXXXXXXXXXXXXXXXXXX  ",
"oooooooooooooooooooooooooooooooooooooooooooooooooooooooooooooo  ",
"oooooooOOOOOOOOoooooooooooooooooooooOOOOoooooooooooooooooooooo  ",
"XXooooooooooooooooooOOOOOOOooooooooooooooooooooooOOOOOOOoooooo  ",
"XXoooooooooooooooooooooooooooooooooooooooooooooooooooooooooooo  ",
"XXXXXXXXXXXXXXXXXXXXXXXXXXXXXXXXXXXXXXXXXXXXXXXXXXXXXXXXXXXXX   ",
"  XXXXXXXXXXXXXXXXXXXXXXXXXXXXXXXXXXXXXXXXXXXXXXXXXXXXXXXXXXX   ",
"   ........XXXXXXXXXXXXXXXXXXXXXXXXXXXXXXXXXXXXXXXXXX.........  ",
"                                                                ",
"                                                                ",
"+++++++++++++++++++++++@@@@@@@@    @@@@@++++++++++++++++++++++++",
"+++++++++++++++++++++++++++++++   ++++++++++++++++++++++++++++++",
"oooooooooooooooooooooooooooooo   ooooooooooooooooooooooooooooooo",
"oooooooooooOOOOOooooooooooooo    oooooooooOOOOooooooooooooOOOOOo",
"oooooooooooooooooooooooooooo     ooooooooooooooooooooooooooooooo",
"XXXXXXXXXXXXXXXXXXXXXXXXXXXX     XXXXXXXXXXXXXXXXXXXXXXXXXXXXXXX",
"XXXXXXXXXXXXXXXXXXXXXXXXXXXXXX   XXXXXXXXXXXXXXXXXXXXXXXXXXXXXXX",
"ooooooooooooooooooooooooooooooo  ooooooooooooooooooooooooooooooo",
"oooooooooooooooooooooOOOOOOoooo  oooooooOOOOOOOooooooooooooooooo",
"ooooOOOOooooooooooooooooooooooo  XXooooooooooooooooooooOOOoooooo",
"ooooooooooooooooooooooooooooooo   Xooooooooooooooooooooooooooooo",
"XXXXXXXXXXXXXXXXXXXXXXXXXXXXXXX    XXXXXXXXXXXXXXXXXXXXXXXXXXXXX",
"XXXXXXXXXXXXXXXXXXXXXXXXXXXXXX      XXXXXXXXXXXXXXXXXXXXXXXXXXXX",
"XXXXXXXXXXXXXXXXXXX.........      ..........XXXXXXXXXXXXXXXXXXXX",
"                                                                ",
"                                                                ",
"  @@@@@@@+++++++++++++++++++++++++++++++++++++++++++@@@@@@@@@@  ",
" +++++++++++++++++++++++++++++++++++++++++++++++++++++++++++++  ",
"oooooooooooooooooooooooooooooooooooooooooooooooooooooooooooooo  ",
"ooooooooOOOOOOOOOOOOOOooooooooooooooooooooooooooooOOOOoooooooo  ",
"ooooooooooooooooooooooooooooooooooooooooooooooooooooooooooooo   ",
"XXXXXXXXXXXXXXXXXXXXXXXXXXXXXXXXXXXXXXXXXXXXXXXXXXXXXXXXXXXXX   ",
"XXXXXXXXXXXXXXXXXXXXXXXXXXXXXXXXXXXXXXXXXXXXXXXXXXXXXXXXXXXX    ",
"oooooooooooooooooooooooooooooooooooooooooooooooooooooooooooo    ",
"oooooooooOOOoooooooooooooooooooooooooooooooOOOooooooooooooooo   ",
"XXooooooooooooooooooOOOOOOOOOOOooooooooooooooooooooOOOOOOoooo   ",
"XXoooooooooooooooooooooooooooooooooooooooooooooooooooooooooooo  ",
"  XXXXXXXXXXXXXXXXXXXXXXXXXXXXXXXXXXXXXXXXXXXXXXXXXXXXXXXXXXXX  ",
"X   XXXXXXXXXXXXXXXXXXXXXXXXXXXXXXXXXXXXXXXXXXXXXXXXXXXXXXXXXX  ",
".........XXXXXXXXXXXXXXXXXXXXXXXXXXXXXXXXXXXXXXXXXXX..........  "
};
