/* XPM */
static char *wood_floor[] = {
/* columns rows colors chars-per-pixel */
"64 64 7 1 ",
"  c #613E21",
". c #804A1B",
"X c #8C5526",
"o c #9D612E",
"O c #A66833",
"+ c #B1733C",
"@ c #BE814A",
/* pixels */
"                                                                ",
"                                                                ",
"+++++++++++++++++++@@@@@@@@@@@@  @@@@@@@@@@@++++++++++++++++++++",
"+++++++++++++++++++++++++++++++  +++++++++++++++++++++++++++++++",
"ooooooooooooooooooooooooooooooo  ooooooooooooooooooooooooooooooo",
"ooooooooooOOOOOOOOOoooooooooooo  oooooooooooooooooOOOOOOOooooooo",
"ooooooooooooooooooooooooooooooo  ooooooooooooooooooooooooooooooo",
"XXXXXXXXXXXXXXXXXXXXXXXXXXXXXXX  XXXXXXXXXXXXXXXXXXXXXXXXXXXXXXX",
"XXXXXXXXXXXXXXXXXXXXXXXXXXXXXXX  XXXXXXXXXXXXXXXXXXXXXXXXXXXXXXX",
"ooooooooooooooooooooooooooooooo  ooooooooooooooooooooooooooooooo",
"ooooOOOOOoooooooooooooooooooooo  oooooooOOOOOOOOOooooooooooooooo",
"ooooooooooooooOOOOOOOOOOOoooooo  XXoooooooooooooooooooOOOOOOoooo",
"ooooooooooooooooooooooooooooooo  XXooooooooooooooooooooooooooooo",
"XXXXXXXXXXXXXXXXXXXXXXXXXXXXXXX  XXXXXXXXXXXXXXXXXXXXXXXXXXXXXXX",
"XXXXXXXXXXXXXXXXXXXXXXXXXXXXXXX  XXXXXXXXXXXXXXXXXXXXXXXXXXXXXXX",
"XXXXXXXXXXXXXXXXXXX............  ...........XXXXXXXXXXXXXXXXXXXX",
"                                                                ",
"                                                                ",
"@@@@@@@@@++++++++++++++++++++++++++++++++++++++++++++@@@@@@@@@  ",
"++++++++++++++++++++++++++++++++++++++++++++++++++++++++++++++  ",
"oooooooooooooooooooooooooooooooooooooooooooooooooooooooooooooo  ",
"ooooooooooooooOOOOOooooooooooooooooooooooooooOOOOOOOOOoooooooo  ",
"oooooooooooooooooooooooooooooooooooooooooooooooooooooooooooooo  ",
"XXXXXXXXXXXXXXXXXXXXXXXXXXXXXXXXXXXXXXXXXXXXXXXXXXXXXXXXXXXXXX  ",
"XXXXXXXXXXXXXXXXXXXXXXXXXXXXXXXXXXXXXXXXXXXXXXXXXXXXXXXXXXXXXX  ",
"oooooooooooooooooooooooooooooooooooooooooooooooooooooooooooooo  ",
"oooooooOOOOOOOOoooooooooooooooooooooOOOOoooooooooooooooooooooo  ",
"XXooooooooooooooooooOOOOOOOooooooooooooooooooooooOOOOOOOoooooo  ",
"XXoooooooooooooooooooooooooooooooooooooooooooooooooooooooooooo  ",
"XXXXXXXXXXXXXXXXXXXXXXXXXXXXXXXXXXXXXXXXXXXXXXXXXXXXXXXXXXXXXX  ",
"XXXXXXXXXXXXXXXXXXXXXXXXXXXXXXXXXXXXXXXXXXXXXXXXXXXXXXXXXXXXXX  ",
"...........XXXXXXXXXXXXXXXXXXXXXXXXXXXXXXXXXXXXXXXXXX.........  ",
"                                                                ",
"                                                                ",
"+++++++++++++++++++++++@@@@@@@@  @@@@@@@++++++++++++++++++++++++",
"+++++++++++++++++++++++++++++++  +++++++++++++++++++++++++++++++",
"ooooooooooooooooooooooooooooooo  ooooooooooooooooooooooooooooooo",
"oooooooooooOOOOOooooooooooooooo  oooooooooOOOOooooooooooooOOOOOo",
"ooooooooooooooooooooooooooooooo  ooooooooooooooooooooooooooooooo",
"XXXXXXXXXXXXXXXXXXXXXXXXXXXXXXX  XXXXXXXXXXXXXXXXXXXXXXXXXXXXXXX",
"XXXXXXXXXXXXXXXXXXXXXXXXXXXXXXX  XXXXXXXXXXXXXXXXXXXXXXXXXXXXXXX",
"ooooooooooooooooooooooooooooooo  ooooooooooooooooooooooooooooooo",
"oooooooooooooooooooooOOOOOOoooo  oooooooOOOOOOOooooooooooooooooo",
"ooooOOOOooooooooooooooooooooooo  XXooooooooooooooooooooOOOoooooo",
"ooooooooooooooooooooooooooooooo  XXooooooooooooooooooooooooooooo",
"XXXXXXXXXXXXXXXXXXXXXXXXXXXXXXX  XXXXXXXXXXXXXXXXXXXXXXXXXXXXXXX",
"XXXXXXXXXXXXXXXXXXXXXXXXXXXXXXX  XXXXXXXXXXXXXXXXXXXXXXXXXXXXXXX",
"XXXXXXXXXXXXXXXXXXX............  ...........XXXXXXXXXXXXXXXXXXXX",
"                                                                ",
"                                                                ",
"@@@@@@@@@+++++++++++++++++++++++++++++++++++++++++++@@@@@@@@@@  ",
"++++++++++++++++++++++++++++++++++++++++++++++++++++++++++++++  ",
"oooooooooooooooooooooooooooooooooooooooooooooooooooooooooooooo  ",
"ooooooooOOOOOOOOOOOOOOooooooooooooooooooooooooooooOOOOoooooooo  ",
"oooooooooooooooooooooooooooooooooooooooooooooooooooooooooooooo  ",
"XXXXXXXXXXXXXXXXXXXXXXXXXXXXXXXXXXXXXXXXXXXXXXXXXXXXXXXXXXXXXX  ",
"XXXXXXXXXXXXXXXXXXXXXXXXXXXXXXXXXXXXXXXXXXXXXXXXXXXXXXXXXXXXXX  ",
"oooooooooooooooooooooooooooooooooooooooooooooooooooooooooooooo  ",
"oooooooooOOOoooooooooooooooooooooooooooooooOOOoooooooooooooooo  ",
"XXooooooooooooooooooOOOOOOOOOOOooooooooooooooooooooOOOOOOooooo  ",
"XXoooooooooooooooooooooooooooooooooooooooooooooooooooooooooooo  ",
"XXXXXXXXXXXXXXXXXXXXXXXXXXXXXXXXXXXXXXXXXXXXXXXXXXXXXXXXXXXXXX  ",
"XXXXXXXXXXXXXXXXXXXXXXXXXXXXXXXXXXXXXXXXXXXXXXXXXXXXXXXXXXXXXX  ",
".........XXXXXXXXXXXXXXXXXXXXXXXXXXXXXXXXXXXXXXXXXXX..........  "
};
